HIERARCHY
ROOT root
{
	OFFSET	0	13.1	24.9
	CHANNELS 6  Xposition Yposition Zposition Xrotation Yrotation Zrotation
	JOINT spine_1
	{
		OFFSET	0	9.99999	0
		CHANNELS 3  Xrotation Yrotation Zrotation
		JOINT spine_2
		{
			OFFSET	0	112	-10
			CHANNELS 3  Xrotation Yrotation Zrotation
			JOINT spine_3
			{
				OFFSET	0	206.5	19.3
				CHANNELS 3  Xrotation Yrotation Zrotation
				JOINT spine_4
				{
					OFFSET	0	110.4	14.6
					CHANNELS 3  Xrotation Yrotation Zrotation
					JOINT neck_1
					{
						OFFSET	0	71.8	-50.3
						CHANNELS 3  Xrotation Yrotation Zrotation
						JOINT neck_2
						{
							OFFSET	0	86.2	-25.8
							CHANNELS 3  Xrotation Yrotation Zrotation
							JOINT head_ee
							{
								OFFSET	0	179.8	-8.7
								CHANNELS 3  Xrotation Yrotation Zrotation
								End Site
								{
									OFFSET	1	0	0
								}
							}
						}
					}
					JOINT left_clavicle
					{
						OFFSET	-43.2	22.4	-70.8
						CHANNELS 3  Xrotation Yrotation Zrotation
						JOINT left_shoulder
						{
							OFFSET	-93.9	-5.79999	48.7
							CHANNELS 3  Xrotation Yrotation Zrotation
							JOINT left_elbow
							{
								OFFSET	-291.4	-30.8	15.2
								CHANNELS 3  Xrotation Yrotation Zrotation
								JOINT left_lowarm_twist
								{
									OFFSET	-110.7	-3.89999	13.6
									CHANNELS 3  Xrotation Yrotation Zrotation
									JOINT left_hand
									{
										OFFSET	-110.7	-3.89999	13.6
										CHANNELS 3  Xrotation Yrotation Zrotation
										JOINT left_ee
										{
											OFFSET	-80.8	-5.10001	12.1
											CHANNELS 3  Xrotation Yrotation Zrotation
											End Site
											{
												OFFSET	1	0	0
											}
										}
									}
								}
							}
						}
					}
					JOINT right_clavicle
					{
						OFFSET	43.2	22.4	-70.8
						CHANNELS 3  Xrotation Yrotation Zrotation
						JOINT right_shoulder
						{
							OFFSET	93.9	-5.79999	48.7
							CHANNELS 3  Xrotation Yrotation Zrotation
							JOINT right_elbow
							{
								OFFSET	291.4	-30.8	15.2
								CHANNELS 3  Xrotation Yrotation Zrotation
								JOINT right_lowarm_twist
								{
									OFFSET	110.7	-3.89999	13.6
									CHANNELS 3  Xrotation Yrotation Zrotation
									JOINT right_hand
									{
										OFFSET	110.7	-3.89999	13.6
										CHANNELS 3  Xrotation Yrotation Zrotation
										JOINT right_ee
										{
											OFFSET	80.8	-5.10001	12.1
											CHANNELS 3  Xrotation Yrotation Zrotation
											End Site
											{
												OFFSET	1	0	0
											}
										}
									}
								}
							}
						}
					}
				}
			}
		}
	}
	JOINT left_hip
	{
		OFFSET	-82.8	-127.5	0.300001
		CHANNELS 3  Xrotation Yrotation Zrotation
		JOINT left_knee
		{
			OFFSET	-28.2	-396.7	2.2
			CHANNELS 3  Xrotation Yrotation Zrotation
			JOINT left_ankle
			{
				OFFSET	-11.7	-411.3	35.4
				CHANNELS 3  Xrotation Yrotation Zrotation
				JOINT left_toes
				{
					OFFSET	0	-60	-88.6
					CHANNELS 3  Xrotation Yrotation Zrotation
					JOINT left_foot_ee
					{
						OFFSET	-22.5	-16.5	-42.2
						CHANNELS 3  Xrotation Yrotation Zrotation
						End Site
						{
							OFFSET	1	0	0
						}
					}
				}
			}
		}
	}
	JOINT right_hip
	{
		OFFSET	82.8	-127.5	0.300001
		CHANNELS 3  Xrotation Yrotation Zrotation
		JOINT right_knee
		{
			OFFSET	28.2	-396.7	2.2
			CHANNELS 3  Xrotation Yrotation Zrotation
			JOINT right_ankle
			{
				OFFSET	11.7	-411.3	35.4
				CHANNELS 3  Xrotation Yrotation Zrotation
				JOINT right_toes
				{
					OFFSET	0	-60	-88.6
					CHANNELS 3  Xrotation Yrotation Zrotation
					JOINT right_foot_ee
					{
						OFFSET	22.5	-16.5	-42.2
						CHANNELS 3  Xrotation Yrotation Zrotation
						End Site
						{
							OFFSET	1	0	0
						}
					}
				}
			}
		}
	}
}
MOTION
Frames: 5
Frame Time: 0.02
2866.79455677 707.979 -1639.93791369 10.6034274866 60.6189071755 -10.6393768673 0.448896 0.857405 1.81994 0.450435 0.73988 1.87079 0.47574 0.346913 1.98161 0.470859 0.655462 1.902 -18.0804 17.167 4.00035 -19.3291 30.8831 10.7998 -0.0 0.0 -0.0 -4.84316 6.65129 -8.0101 -2.55241 -17.5585 70.0216 0.918332 -24.4611 0.199067 -11.8041 -0.562145 1.39796 -1.6976 -6.66197 -14.4331 -0.0 0.0 -0.0 7.6167 28.7218 -13.2854 -18.44 31.331 -70.3031 0.604328 16.6661 -0.0885186 11.0356 -0.256201 1.38425 4.13864 -20.2518 -35.2545 0.0 0.0 0.0 -7.11249 23.6607 3.73273 -7.55914 0.236629 1.13513 16.2904 16.0386 -2.28637 -29.9178 0.0 0.0 -0.0 0.0 -0.0 12.7833 31.1537 -9.39677 -51.345 1.34132 -7.50595 36.0618 -6.41001 4.501 27.8491 -0.0 -0.0 0.0 0.0 0.0 
2855.61045494 712.502 -1609.85530605 10.1202611735 64.5769253472 -10.7614635497 0.448144 0.704479 1.72999 0.449614 0.592985 1.7713 0.468917 0.222825 1.85456 0.464485 0.512873 1.79612 -17.1484 16.8346 4.18153 -18.206 30.0419 10.5022 -0.0 0.0 -0.0 -4.44417 8.80088 -6.80403 -1.56134 -14.4952 68.289 1.162 -29.9246 0.310548 -14.686 -0.742313 1.71971 -2.1924 -11.6574 -20.1328 -0.0 0.0 -0.0 8.40802 28.2637 -15.0783 -20.4678 31.4139 -67.463 0.477693 13.3135 -0.0557507 12.3393 -0.268732 1.5503 4.54017 -16.9448 -37.6753 0.0 0.0 0.0 -7.99276 25.271 4.92026 -6.82725 0.220296 1.024 16.8521 12.1197 -2.34108 -33.6494 0.0 0.0 -0.0 0.0 -0.0 14.2167 30.1622 -9.03137 -46.6736 0.944961 -6.90598 34.8048 -4.51712 4.3802 27.4822 -0.0 -0.0 0.0 0.0 0.0 
2840.53682493 715.018 -1579.49798814 13.4651283997 69.6745840957 -15.197842537 0.155806 0.311327 1.99292 0.157997 0.183908 2.00868 0.165519 -0.236649 2.00315 0.159929 0.0826155 2.01539 -16.8715 16.5349 5.25378 -17.7672 28.8406 11.2442 -0.0 0.0 -0.0 -3.74881 10.1636 -5.28222 0.959925 -10.0461 66.6194 1.40666 -34.8675 0.441752 -16.2896 -0.849532 1.89476 -2.38889 -15.419 -23.1554 -0.0 0.0 -0.0 8.68316 27.6641 -15.7537 -22.8183 30.7379 -65.5862 0.429684 12.0164 -0.0452241 14.0343 -0.279369 1.76653 5.69999 -13.0877 -46.8793 0.0 0.0 0.0 -11.7684 26.4431 8.05034 -5.08131 0.175609 0.759803 19.7425 9.2585 -2.70056 -38.0274 0.0 0.0 -0.0 0.0 -0.0 17.8948 28.6787 -10.1706 -44.4045 0.770487 -6.60357 28.8884 -9.53494 3.77421 29.3097 -0.0 -0.0 0.0 0.0 0.0 
2825.07031193 713.004 -1559.74742396 13.8754520868 70.8539668371 -15.7228213014 0.0410263 0.394155 1.92237 0.0430416 0.271055 1.94354 0.0533858 -0.141663 1.95722 0.0480794 0.169161 1.95504 -14.6507 17.1526 3.76472 -15.4742 30.5715 9.47141 -0.0 0.0 -0.0 -3.16789 10.4393 -4.21582 1.96629 -6.8113 65.6128 1.61101 -38.5887 0.564023 -18.3813 -0.996695 2.11849 -2.73398 -19.4775 -27.3296 -0.0 0.0 -0.0 8.63558 27.8756 -15.6247 -22.8739 30.5035 -65.5643 0.370572 10.4022 -0.033732 13.822 -0.278387 1.73943 5.9507 -9.47733 -48.1931 0.0 0.0 0.0 -13.2828 28.6052 9.78425 -6.41458 0.210461 0.96144 21.2402 6.49562 -2.88337 -39.1881 0.0 0.0 -0.0 0.0 -0.0 21.6775 29.0436 -11.9302 -44.438 0.772973 -6.60808 21.4127 -11.4963 2.91324 31.8691 -0.0 -0.0 0.0 0.0 0.0 
2803.78856247 713.234 -1542.59744086 12.1798830153 71.5032087898 -12.986658039 -0.116063 0.26719 1.79476 -0.114283 0.152463 1.80812 -0.108478 -0.234425 1.79933 -0.112993 0.0526395 1.81377 -12.8813 18.3953 3.35948 -13.6388 32.94 8.99763 -0.0 0.0 -0.0 -1.16634 8.76768 -1.00526 5.66723 -2.74767 60.7636 1.79501 -41.6395 0.682618 -17.8841 -0.960971 2.06579 -2.60709 -20.8116 -26.9149 -0.0 0.0 -0.0 9.12472 27.2294 -16.7801 -25.2761 29.9772 -62.0651 0.383977 10.7698 -0.0361947 16.1191 -0.283673 2.03275 7.00863 -8.68519 -60.1505 0.0 0.0 0.0 -20.4023 32.6465 14.3776 1.89765 -0.0827831 -0.279412 21.3635 0.566548 -2.91658 -39.8902 0.0 0.0 -0.0 0.0 -0.0 29.7618 30.202 -16.6221 -46.0082 0.89255 -6.818 5.83153 -21.2004 0.86243 30.215 -0.0 -0.0 0.0 0.0 0.0 
